<svg xmlns="http://www.w3.org/2000/svg" width="42" height="28" fill="none" viewBox="0 0 42 28" part="w-icon-motorcycle-42-part"><title>MC</title><path stroke="currentColor" stroke-linecap="round" stroke-linejoin="round" stroke-width="2" d="M33.857 9.16v2.054m4.286 9.036c0 2.722-2.303 4.929-5.143 4.929s-5.143-2.207-5.143-4.929S30.16 15.322 33 15.322s5.143 2.206 5.143 4.928m-24 0c0 2.722-2.303 4.929-5.143 4.929s-5.143-2.207-5.143-4.929S6.159 15.322 9 15.322s5.143 2.206 5.143 4.928m0-8.214h6l1.24-2.378c.29-.556.884-.908 1.534-.908h8.369"></path><path stroke="currentColor" stroke-linecap="round" stroke-linejoin="round" stroke-width="2" d="M7.286 9.571H12l2.143 2.465 3.428 4.107v4.107h5.143l3.429-6.571 5.143-2.054V8.75m-13.714 7.393-3.858 1.643M31.286 8.75l-6-4.107m5.143 11.089-1.715-2.875"></path></svg>