<svg xmlns="http://www.w3.org/2000/svg" width="42" height="28" fill="none" viewBox="0 0 42 28" part="w-icon-minivan-42-part"><title>Minivan</title><path stroke="currentColor" stroke-width="2" d="M15 21.714h11.304"></path><path stroke="currentColor" stroke-linecap="round" stroke-width="2" d="M3.857 13.143h3.429"></path><path fill="currentColor" d="M33 13.286a1 1 0 1 0 0-2zm-7.714-1-.8.6.3.4h.5zm-2.572-3.429.8-.6a1 1 0 0 0-.8-.4zm-6.857-1a1 1 0 1 0 0 2zM33 11.286h-7.714v2H33zm-6.914.4-2.571-3.429-1.6 1.2 2.57 3.429 1.6-1.2Zm-3.371-3.829h-6.858v2h6.858z"></path><path fill="currentColor" d="m33 12.286-.8.6q.103.136.246.232zm5.143 3.428h1v-.535l-.445-.297zm0 6v1a1 1 0 0 0 1-1zm-30.857 1a1 1 0 1 0 0-2zm26.571-2a1 1 0 1 0 0 2zM4.715 5.43v-1a1 1 0 0 0-.858 1.514zM6 7.572l.934.359a1 1 0 0 0-.076-.874zm-2.143 5.571-.933-.359a1 1 0 0 0-.067.359zm25.258-4.371 3.085 4.114 1.6-1.2-3.085-4.114zm8.028 6.942v6h2v-6zm-31.571 7h1.714v-2H5.572zm33.126-7.832-5.143-3.428-1.11 1.664 5.143 3.429zM3.858 5.943l1.285 2.143 1.715-1.029-1.286-2.143-1.715 1.03Zm1.209 1.27-2.143 5.571 1.867.718 2.143-5.571zM2.857 20c0 1.5 1.216 2.714 2.715 2.714v-2A.714.714 0 0 1 4.857 20zM30.715 7.572a7.86 7.86 0 0 0-6.286-3.143v2c1.843 0 3.58.868 4.686 2.343zM2.857 13.143V20h2v-6.857zm35.286 7.571h-4.286v2h4.286zM24.43 4.43H4.715v2h19.714v-2Z"></path><path stroke="currentColor" stroke-width="2" d="M33.857 21.285a3.857 3.857 0 1 1-7.714 0 3.857 3.857 0 0 1 7.714 0Zm-18.857 0a3.857 3.857 0 1 1-7.714 0 3.857 3.857 0 0 1 7.714 0Z"></path></svg>