<svg xmlns="http://www.w3.org/2000/svg" width="16" height="16" fill="none" viewBox="0 0 16 16"><path fill="currentColor" fill-rule="evenodd" d="M.8 3.593C2.18 1.257 4.362 1.25 4.856 1.25c.707 0 1.68.222 2.919 1.22l.017.014.214.195.237-.209.026-.02c1.059-.78 1.808-1.2 2.876-1.2.984 0 2.797.362 3.994 2.336.986 1.629.782 3.752-.634 5.254-.29.308-.657.673-1.292 1.304-.367.365-.824.819-1.408 1.403-.25.25-.542.537-.857.846l-.095.093c-.352.346-.731.72-1.117 1.105l-.266.272a8.668 8.668 0 01-.473.466c-.246.215-.567.421-1.017.421-.348 0-.64-.189-.785-.29a4.582 4.582 0 01-.523-.439c-.22-.21-.459-.464-.621-.638a12.401 12.401 0 00-.149-.157c-.321-.33-.667-.679-1.01-1.025-.317-.319-.631-.636-.922-.934-.88-.901-1.535-1.561-1.943-1.972a46.54 46.54 0 01-.445-.451C.326 7.529-.262 5.392.8 3.594zm4.052-.843c-.38 0-1.811 0-2.76 1.606-.64 1.083-.338 2.496.574 3.452.07.072.21.214.426.43.395.398 1.04 1.047 1.952 1.982.242.248.565.574.896.908.37.372.748.755 1.037 1.052.069.07.142.148.219.231.152.163.32.344.51.525.117.111.22.2.304.264l.002-.002c.064-.056.142-.133.256-.25l.085-.088c.092-.095.2-.208.322-.33a175.993 175.993 0 011.221-1.206c.316-.311.604-.593.848-.838a574.7 574.7 0 011.443-1.437c.612-.608.953-.947 1.227-1.237.965-1.025 1.07-2.412.442-3.448-.84-1.386-2.063-1.614-2.711-1.614-.56 0-.976.166-1.96.889L7.992 4.69 6.817 3.625c-.99-.792-1.63-.875-1.961-.875h-.004z" clip-rule="evenodd"></path></svg>